P3
6 5
255
200 0 0 200 0 0 0 0 0 0 0 0 200 0 0 200 0 0
200 0 0 200 0 0 0 0 0 0 0 0 200 0 0 200 0 0
200 0 0 200 0 0 0 0 0 0 0 0 200 0 0 200 0 0
0 0 0 0 0 0 200 0 0 200 0 0 0 0 0 0 0 0
0 0 0 0 0 0 200 0 0 200 0 0 0 0 0 0 0 0
