P3
6 5
255
0 255 0 0 255 0 0 255 0 0 255 0 0 255 0 0 255 0 
0 255 0 0 255 100 127 127 127 0 255 0 0 255 0 0 255 0
0 255 0 100 255 0 127 127 127 0 255 0 0 255 0 0 255 0
0 255 0 127 127 127 0 255 0 0 255 0 0 255 0 0 255 0 
0 255 0 0 255 0 0 255 0 0 255 0 0 255 0 0 255 0 
