P3
3 2
255
127 127 127 127 127 127
127 127 127 127 127 127
127 127 127 0 255 0

